<svg xmlns="http://www.w3.org/2000/svg" xmlns:xlink="http://www.w3.org/1999/xlink" width="688" height="735" viewBox="0 0 688 735"><defs><filter id="a" x="78" y="0" width="437" height="437" filterUnits="userSpaceOnUse"><feOffset dy="3" input="SourceAlpha"/><feGaussianBlur stdDeviation="3" result="b"/><feFlood flood-opacity="0.161"/><feComposite operator="in" in2="b"/><feComposite in="SourceGraphic"/></filter><filter id="c" x="0" y="364" width="371" height="371" filterUnits="userSpaceOnUse"><feOffset dy="3" input="SourceAlpha"/><feGaussianBlur stdDeviation="3" result="d"/><feFlood flood-opacity="0.161"/><feComposite operator="in" in2="d"/><feComposite in="SourceGraphic"/></filter></defs><g transform="translate(21544 14275)"><path d="M209,340.5C209,152.447,361.447,0,549.5,0A339.563,339.563,0,0,1,679,25.491V655.51A339.563,339.563,0,0,1,549.5,681C361.447,681,209,528.553,209,340.5Z" transform="translate(-21535 -14270)" fill="#fff"/><g transform="translate(-22175 -14284)"><g transform="matrix(1, 0, 0, 1, 631, 9)" filter="url(#a)"><circle cx="209.5" cy="209.5" r="209.5" transform="translate(87 6)" fill="#fffdfd"/></g><g transform="matrix(1, 0, 0, 1, 631, 9)" filter="url(#c)"><circle cx="176.5" cy="176.5" r="176.5" transform="translate(9 370)" fill="#fdfeff"/></g><circle cx="71.5" cy="71.5" r="71.5" transform="translate(804 514)" fill="#ed8081"/><ellipse cx="32.5" cy="33" rx="32.5" ry="33" transform="translate(863 212)" fill="#95e1d3"/><circle cx="32" cy="32" r="32" transform="translate(1039 365)" fill="#dcf7b6"/><ellipse cx="17.5" cy="18" rx="17.5" ry="18" transform="translate(1215 329)" fill="#fcbdab"/><ellipse cx="26" cy="25.5" rx="26" ry="25.5" transform="translate(999 492)" fill="#fce38a"/><ellipse cx="9.5" cy="10" rx="9.5" ry="10" transform="translate(1094 541)" fill="#fce38a"/><circle cx="26" cy="26" r="26" transform="translate(1190 584)" fill="#b2d1ff"/><ellipse cx="13.5" cy="13" rx="13.5" ry="13" transform="translate(849 403)" fill="#e9fbd0"/><ellipse cx="13" cy="13.5" rx="13" ry="13.5" transform="translate(1034 228)" fill="#e9fbd0"/></g></g></svg>