<svg xmlns="http://www.w3.org/2000/svg" width="15.391" height="12.313" viewBox="0 0 15.391 12.313"><path d="M5,8.465a.55.55,0,0,0-.17.026,3.172,3.172,0,0,1-.985.166,3.175,3.175,0,0,1-.985-.166.549.549,0,0,0-.17-.026A2.694,2.694,0,0,0,0,11.173a1.151,1.151,0,0,0,1.154,1.139H6.541A1.151,1.151,0,0,0,7.7,11.173,2.694,2.694,0,0,0,5,8.465ZM3.848,7.7A2.309,2.309,0,1,0,1.539,5.387,2.309,2.309,0,0,0,3.848,7.7ZM14.236,0H5A1.175,1.175,0,0,0,3.848,1.193V2.309a3.043,3.043,0,0,1,1.539.428v-1.2h8.465V8.465H12.312V6.926H9.234V8.465H7.4A3.065,3.065,0,0,1,8.355,10h5.881a1.175,1.175,0,0,0,1.154-1.193V1.193A1.175,1.175,0,0,0,14.236,0Z" transform="translate(0)" fill="#f9c833"/></svg>